# xmcd
#
# Track frame offsets: 
#        150
#        11617
#        22215
#        34345
#        44022
#        56397
#        66902
#        77572
#        89892
#        102510
#        112332
#        121592
#        130937
#        141987
#        151987
#        162030
#        170835
#        182790
#        192982
#        204087
#        213960
#        224962
#        234765
#        245350
#        255507
#        265937
#        275457
#        284890
#        297125
#        310067
#
# Disc length: 4263 seconds
#
# Revision: 2
# Processed by: cddbd v1.5.2PL0 Copyright (c) Steve Scherf et al.
# Submitted via: ExactAudioCopy v0.99pb5
#
DISCID=cf10a51e
DTITLE=Fats Domino - The Imperial Singles Volume 2 1953-1956
DYEAR=1997
DGENRE=R&B
TTITLE0=Going To The River
TTITLE1=Mardi Gras In New Orleans
TTITLE2=Please Don't Leave Me
TTITLE3=The Girl I Love
TTITLE4=You Said You Love Me
TTITLE5=Rose Mary
TTITLE6=Don't Leave Me This Way
TTITLE7=Something's Wrong
TTITLE8=Little School Girl
TTITLE9=You Done Me Wrong
TTITLE10=Baby Please
TTITLE11=Where Did you Stay
TTITLE12=You Can Pack Your Suitcase
TTITLE13=I Lived My Life
TTITLE14=Don't You Hear Me Calling You
TTITLE15=Love Me
TTITLE16=I Know
TTITLE17=Thinking Of You
TTITLE18=Don't You Know
TTITLE19=Helping Hand
TTITLE20=Ain't That A Shame
TTITLE21=La-La
TTITLE22=All By Myself
TTITLE23=Troubles Of My Own
TTITLE24=Poor Me
TTITLE25=I Can't Go On (Rosalie)
TTITLE26=Boll Weevil
TTITLE27=Don't Blame It On Me
TTITLE28=Swanee River Hop
TTITLE29=If You Need Me
EXTD=2nd in The singles series. YEAR: 1997
EXTT0=
EXTT1=
EXTT2=
EXTT3=
EXTT4=
EXTT5=
EXTT6=
EXTT7=
EXTT8=
EXTT9=
EXTT10=
EXTT11=
EXTT12=
EXTT13=
EXTT14=
EXTT15=
EXTT16=
EXTT17=
EXTT18=
EXTT19=
EXTT20=
EXTT21=
EXTT22=
EXTT23=
EXTT24=
EXTT25=
EXTT26=
EXTT27=
EXTT28=
EXTT29=
PLAYORDER=
